<?xml version="1.0" standalone="no"?>
<!DOCTYPE svg PUBLIC "-//W3C//DTD SVG 20010904//EN"
 "http://www.w3.org/TR/2001/REC-SVG-20010904/DTD/svg10.dtd">
<svg version="1.0" xmlns="http://www.w3.org/2000/svg"
 width="761.000000pt" height="200pt" viewBox="0 0 845 100"
 preserveAspectRatio="xMidYMid meet">

<g transform="translate(0,200) scale(0.120000,-0.120000)"
fill="#000000" stroke="none">
<path d="M2160 1735 c0 -24 3 -25 55 -25 l55 0 0 -440 0 -440 21 0 c13 0 38
18 62 46 l40 45 31 -30 c113 -109 299 -62 367 93 31 70 38 210 14 292 -49 168
-255 220 -372 94 l-28 -30 3 210 3 210 -126 0 -125 0 0 -25z m472 -385 c31
-38 40 -98 36 -230 -4 -139 -23 -195 -73 -218 -87 -40 -164 22 -184 147 -23
143 27 292 109 324 30 12 94 -1 112 -23z"/>
<path d="M4760 1735 c0 -24 3 -25 55 -25 l55 0 0 -174 0 -174 -31 29 c-69 64
-187 64 -282 -1 -74 -51 -112 -154 -105 -290 5 -111 41 -190 106 -235 39 -27
52 -30 115 -30 88 0 137 22 178 78 l29 40 0 -51 0 -52 116 0 c114 0 115 0 112
23 -3 19 -10 22 -50 25 l-48 3 0 430 0 429 -125 0 -125 0 0 -25z m57 -398 c42
-47 56 -103 51 -208 -3 -67 -10 -97 -31 -140 -47 -96 -130 -127 -187 -71 -38
38 -50 88 -50 208 0 181 45 262 139 251 35 -4 52 -13 78 -40z"/>
<path d="M260 1665 c0 -24 3 -25 54 -25 l54 0 26 -67 c14 -38 81 -216 149
-398 124 -329 124 -330 154 -333 35 -4 20 -35 158 335 38 100 71 181 74 179 3
-3 49 -119 101 -260 l95 -256 31 0 32 0 71 203 c39 111 102 290 140 397 l68
195 52 3 c47 3 51 5 51 28 l0 24 -135 0 -135 0 0 -25 c0 -23 3 -25 51 -25 37
0 50 -4 47 -13 -14 -60 -194 -555 -199 -549 -6 7 -209 548 -209 558 0 2 23 4
50 4 47 0 50 2 50 25 l0 25 -185 0 -185 0 0 -25 c0 -24 3 -25 54 -25 l53 0 34
-92 35 -93 -75 -199 c-41 -110 -76 -195 -78 -190 -2 5 -50 135 -107 289 l-104
280 49 3 c45 3 49 5 49 28 l0 24 -185 0 -185 0 0 -25z"/>
<path d="M2920 1666 c0 -25 2 -26 60 -26 l60 0 0 -370 0 -370 -60 0 c-57 0
-60 -1 -60 -25 l0 -25 195 0 195 0 0 25 c0 24 -3 25 -60 25 l-60 0 0 170 0
170 63 0 c112 0 143 -35 157 -180 11 -105 26 -144 69 -185 26 -24 41 -30 95
-33 62 -4 64 -3 104 35 47 44 51 58 23 72 -15 9 -22 6 -35 -14 -20 -31 -51
-32 -70 -2 -7 12 -17 56 -21 97 -11 122 -52 186 -140 220 l-30 12 60 27 c68
32 97 59 120 113 43 104 -10 215 -123 259 -52 21 -78 23 -299 27 l-243 4 0
-26z m449 -49 c43 -21 65 -73 65 -152 0 -127 -40 -169 -162 -170 l-77 0 -3
168 -2 167 77 0 c43 0 89 -6 102 -13z"/>
<path d="M6687 1603 c-2 -4 -7 -21 -11 -38 -4 -16 -19 -56 -33 -87 l-26 -58
-48 0 c-46 0 -49 -2 -49 -25 0 -23 4 -25 44 -25 l44 0 4 -212 c4 -237 10 -261
71 -298 40 -25 125 -26 174 -4 33 16 83 76 83 101 0 16 -43 29 -48 14 -10 -31
-50 -63 -77 -63 -51 0 -55 16 -55 249 l0 213 75 0 c73 0 75 1 75 25 0 24 -2
25 -75 25 l-74 0 -3 93 -3 92 -32 3 c-17 2 -33 -1 -36 -5z"/>
<path d="M1810 1434 c-69 -13 -133 -62 -168 -127 -25 -48 -27 -61 -27 -172 0
-106 3 -126 24 -168 61 -124 230 -173 367 -105 37 18 57 37 82 78 17 30 32 57
32 61 0 4 -11 9 -25 12 -22 4 -29 -2 -45 -33 -27 -53 -72 -88 -125 -96 -104
-15 -161 47 -167 181 l-3 70 183 3 182 2 0 58 c0 31 -5 74 -11 95 -12 44 -59
102 -102 123 -30 16 -151 27 -197 18z m129 -58 c24 -19 41 -73 41 -131 l0 -55
-110 0 -110 0 0 38 c0 82 41 155 93 165 28 5 68 -3 86 -17z"/>
<path d="M3978 1430 c-64 -12 -128 -59 -162 -120 -30 -53 -31 -59 -31 -175 0
-113 2 -123 28 -170 54 -96 153 -143 280 -131 147 14 225 92 247 246 9 67 9
91 -6 165 -30 145 -175 221 -356 185z m149 -52 c13 -6 33 -32 45 -57 20 -40
23 -62 23 -171 0 -144 -14 -206 -56 -246 -52 -50 -149 -31 -183 35 -50 96 -35
372 23 425 38 34 95 39 148 14z"/>
<path d="M5342 1421 c-95 -33 -145 -100 -162 -218 -11 -82 1 -187 29 -242 45
-86 150 -138 261 -128 70 6 129 35 169 84 38 46 56 93 36 93 -7 0 -20 3 -28 6
-10 3 -18 -3 -22 -18 -33 -108 -193 -156 -259 -78 -27 32 -46 106 -46 175 l0
45 186 0 187 0 -7 73 c-11 122 -60 190 -155 217 -54 15 -130 11 -189 -9z m146
-36 c31 -9 52 -54 59 -130 l6 -65 -117 0 c-133 0 -127 -6 -101 95 26 100 65
125 153 100z"/>
<path d="M6150 1428 c-50 -14 -88 -45 -121 -96 l-29 -46 0 67 0 67 -120 0
-120 0 0 -25 c0 -24 3 -25 55 -25 l55 0 0 -234 0 -235 -47 -3 c-41 -3 -48 -6
-51 -25 l-3 -23 160 0 161 0 0 25 c0 23 -4 25 -41 25 l-42 0 6 138 c5 148 20
208 66 274 28 39 53 57 86 60 88 7 95 -13 95 -271 l0 -200 -42 -3 c-36 -2 -44
-7 -46 -25 l-3 -23 160 0 161 0 0 25 c0 23 -4 25 -44 25 l-45 0 -3 213 c-3
191 -5 215 -23 247 -38 66 -133 95 -225 68z"/>
</g>
</svg>
