<?xml version="1.0" standalone="no"?>
<!DOCTYPE svg PUBLIC "-//W3C//DTD SVG 20010904//EN"
 "http://www.w3.org/TR/2001/REC-SVG-20010904/DTD/svg10.dtd">
<svg version="1.0" xmlns="http://www.w3.org/2000/svg"
 width="512.000000pt" height="512.000000pt" viewBox="0 0 512.000000 512.000000"
 preserveAspectRatio="xMidYMid meet">

<g transform="translate(0.000000,512.000000) scale(0.100000,-0.100000)"
fill="#000000" stroke="none">
<path d="M0 2560 l0 -2560 2560 0 2560 0 0 2560 0 2560 -2560 0 -2560 0 0
-2560z m3733 1266 c42 -17 93 -76 107 -123 8 -27 10 -373 8 -1170 l-3 -1131
-30 -43 c-16 -23 -50 -53 -74 -66 l-44 -23 -1131 0 c-1072 0 -1133 1 -1171 19
-44 20 -102 79 -110 114 -3 12 -4 540 -3 1173 l3 1151 28 36 c15 21 45 46 65
57 36 19 66 19 1180 20 938 0 1148 -2 1175 -14z"/>
<path d="M1751 3459 c-155 -79 -152 -308 5 -385 69 -34 139 -31 207 9 134 79
137 277 5 364 -57 38 -154 44 -217 12z"/>
<path d="M2940 2900 c-100 -18 -161 -50 -232 -121 l-68 -68 0 79 0 80 -180 0
-180 0 0 -605 0 -605 190 0 190 0 0 353 c0 203 5 371 11 397 24 106 99 164
214 164 87 1 132 -25 170 -99 l30 -59 3 -378 3 -378 185 0 185 0 -4 438 c-3
395 -5 444 -23 507 -44 157 -133 249 -274 283 -67 16 -169 22 -220 12z"/>
<path d="M1660 2265 l0 -605 190 0 190 0 0 605 0 605 -190 0 -190 0 0 -605z"/>
</g>
</svg>
