<?xml version="1.0" standalone="no"?>
<!DOCTYPE svg PUBLIC "-//W3C//DTD SVG 20010904//EN"
 "http://www.w3.org/TR/2001/REC-SVG-20010904/DTD/svg10.dtd">
<svg version="1.0" xmlns="http://www.w3.org/2000/svg"
 width="759.000000pt" height="256.000000pt" viewBox="0 0 759.000000 256.000000"
 preserveAspectRatio="xMidYMid meet">

<g transform="translate(0.000000,256.000000) scale(0.100000,-0.100000)"
fill="#000000" stroke="none">
<path d="M2280 2045 c0 -24 3 -25 55 -25 l55 0 0 -440 0 -440 21 0 c13 0 38
18 61 45 l40 45 38 -34 c48 -43 99 -60 161 -53 140 17 219 119 227 293 6 123
-14 193 -72 250 -86 87 -229 84 -313 -6 l-28 -30 3 210 3 210 -126 0 -125 0 0
-25z m472 -387 c31 -40 40 -97 36 -228 -3 -102 -8 -132 -25 -166 -43 -81 -147
-86 -197 -9 -53 81 -51 273 4 363 44 72 141 93 182 40z"/>
<path d="M4880 2045 c0 -24 3 -25 55 -25 l55 0 0 -174 0 -174 -31 29 c-80 74
-228 59 -317 -33 -104 -105 -92 -397 19 -480 99 -74 243 -58 310 35 l29 40 0
-51 0 -52 116 0 c114 0 115 0 112 23 -3 19 -10 22 -50 25 l-48 3 0 430 0 429
-125 0 -125 0 0 -25z m57 -398 c42 -47 56 -103 51 -208 -3 -68 -10 -97 -31
-142 -47 -95 -130 -126 -187 -69 -38 38 -50 88 -50 208 0 181 45 262 139 251
35 -4 52 -13 78 -40z"/>
<path d="M380 1975 c0 -24 3 -25 54 -25 l54 0 26 -67 c14 -38 81 -216 149
-398 124 -329 124 -330 154 -333 35 -4 20 -35 158 335 38 100 71 181 74 179 3
-3 49 -119 101 -260 l95 -256 31 0 32 0 71 203 c39 111 102 290 140 397 l68
195 52 3 c47 3 51 5 51 28 l0 24 -135 0 -135 0 0 -25 c0 -23 3 -25 51 -25 37
0 50 -4 47 -13 -15 -61 -194 -555 -200 -549 -6 6 -208 548 -208 558 0 2 23 4
50 4 47 0 50 2 50 25 l0 25 -185 0 -185 0 0 -25 c0 -24 3 -25 54 -25 l53 0 34
-92 35 -93 -75 -199 c-41 -110 -76 -195 -78 -190 -2 5 -50 135 -107 289 l-105
280 50 3 c45 3 49 5 49 28 l0 24 -185 0 -185 0 0 -25z"/>
<path d="M3040 1976 c0 -25 2 -26 60 -26 l60 0 0 -370 0 -370 -60 0 c-57 0
-60 -1 -60 -25 l0 -25 195 0 195 0 0 25 c0 24 -3 25 -60 25 l-60 0 0 170 0
170 63 0 c112 0 143 -35 157 -180 11 -105 26 -144 69 -184 25 -24 41 -30 88
-33 65 -5 108 15 139 63 17 25 17 27 -1 41 -18 12 -22 11 -38 -12 -11 -14 -29
-25 -42 -25 -29 0 -41 32 -50 125 -11 117 -53 182 -140 215 l-30 12 60 27 c68
32 97 59 120 113 43 104 -10 215 -123 259 -52 20 -79 23 -299 27 l-243 4 0
-26z m449 -49 c43 -21 65 -73 65 -152 0 -127 -40 -169 -162 -170 l-77 0 -3
168 -2 167 77 0 c43 0 89 -6 102 -13z"/>
<path d="M6807 1913 c-2 -4 -7 -21 -11 -38 -4 -16 -19 -56 -33 -87 l-26 -58
-48 0 c-46 0 -49 -2 -49 -25 0 -23 4 -25 44 -25 l44 0 4 -212 c4 -237 10 -261
71 -298 40 -25 125 -26 174 -4 33 16 83 76 83 101 0 16 -43 29 -48 14 -10 -31
-50 -63 -77 -63 -51 0 -55 16 -55 249 l0 213 75 0 c73 0 75 1 75 25 0 24 -2
25 -75 25 l-74 0 -3 93 -3 92 -32 3 c-17 2 -33 -1 -36 -5z"/>
<path d="M1930 1744 c-69 -13 -133 -62 -168 -127 -25 -48 -27 -61 -27 -172 0
-106 3 -126 24 -168 61 -124 230 -173 367 -105 37 18 57 37 82 78 17 30 32 57
32 61 0 4 -11 9 -25 12 -22 4 -29 -2 -44 -32 -46 -89 -136 -123 -218 -84 -46
22 -71 76 -75 168 l-3 70 184 3 184 2 -6 79 c-2 43 -12 91 -20 107 -17 33 -61
76 -95 94 -25 12 -150 22 -192 14z m129 -58 c24 -19 41 -73 41 -131 l0 -55
-110 0 -110 0 0 38 c0 82 41 155 93 165 28 5 68 -3 86 -17z"/>
<path d="M4088 1737 c-71 -21 -120 -58 -153 -118 -29 -52 -30 -59 -30 -174 0
-114 1 -123 29 -173 52 -94 156 -141 283 -128 143 15 222 94 242 243 23 163
-28 286 -137 335 -56 25 -172 32 -234 15z m159 -49 c13 -6 33 -32 45 -57 20
-40 23 -62 23 -171 0 -144 -14 -206 -56 -246 -52 -50 -149 -31 -183 35 -51 97
-36 372 23 425 38 34 95 39 148 14z"/>
<path d="M5472 1735 c-102 -32 -154 -100 -172 -224 -26 -184 40 -317 177 -357
108 -31 220 -3 282 73 38 46 56 93 36 93 -7 0 -20 3 -28 6 -10 3 -18 -3 -22
-18 -33 -108 -193 -156 -259 -78 -27 32 -46 106 -46 175 l0 45 186 0 187 0 -7
73 c-11 122 -60 190 -155 217 -49 13 -127 11 -179 -5z m136 -40 c31 -9 52 -54
59 -130 l6 -65 -117 0 c-133 0 -127 -6 -101 95 26 100 65 125 153 100z"/>
<path d="M6270 1738 c-50 -14 -88 -45 -121 -96 l-29 -46 0 67 0 67 -120 0
-120 0 0 -25 c0 -24 3 -25 55 -25 l55 0 0 -234 0 -235 -47 -3 c-41 -3 -48 -6
-51 -25 l-3 -23 160 0 161 0 0 25 c0 23 -4 25 -41 25 l-42 0 6 138 c5 148 20
208 66 274 28 39 53 57 86 60 88 7 95 -13 95 -271 l0 -200 -42 -3 c-36 -2 -44
-7 -46 -25 l-3 -23 160 0 161 0 0 25 c0 23 -4 25 -44 25 l-45 0 -3 213 c-3
191 -5 215 -23 247 -38 66 -133 95 -225 68z"/>
<path d="M1082 924 c-25 -17 -30 -65 -8 -83 7 -6 36 -18 64 -26 54 -16 68 -33
48 -60 -18 -25 -88 -17 -101 13 -5 12 -15 22 -22 22 -23 0 -14 -38 15 -60 21
-17 36 -21 69 -17 55 6 73 21 73 62 0 40 -14 53 -77 68 -41 10 -48 16 -48 36
0 13 7 28 16 34 23 14 67 1 74 -23 3 -11 13 -20 21 -20 19 0 18 13 -7 44 -24
31 -81 36 -117 10z"/>
<path d="M1405 868 c-15 -40 -34 -88 -42 -107 -20 -50 1 -65 23 -17 16 33 21
36 61 36 40 0 45 -3 54 -29 10 -30 40 -51 38 -28 0 7 -17 57 -37 112 -48 127
-60 131 -97 33z m58 -13 l16 -45 -34 0 -34 0 17 45 c9 25 17 45 18 45 1 0 9
-20 17 -45z"/>
<path d="M1680 830 c0 -91 3 -110 15 -110 11 0 15 12 15 50 l0 50 55 0 c30 0
55 5 55 10 0 6 -25 10 -55 10 l-55 0 0 35 0 35 60 0 c47 0 60 3 60 15 0 12
-15 15 -75 15 l-75 0 0 -110z"/>
<path d="M1972 828 l3 -113 38 1 c20 1 55 2 77 3 67 2 45 21 -25 21 l-65 0 0
40 0 40 60 0 c33 0 60 4 60 10 0 6 -27 10 -60 10 l-60 0 0 35 0 35 65 0 c51 0
65 3 65 15 0 12 -16 15 -80 15 l-81 0 3 -112z"/>
<path d="M2504 922 c-30 -24 -44 -55 -44 -97 0 -90 83 -145 150 -98 17 12 25
13 28 5 10 -30 22 -7 22 43 l0 55 -50 0 c-27 0 -50 -4 -50 -10 0 -5 16 -10 35
-10 27 0 35 -4 35 -18 0 -51 -89 -73 -122 -31 -24 28 -24 100 0 127 29 35 67
38 97 8 29 -29 45 -33 45 -12 0 46 -104 73 -146 38z"/>
<path d="M2810 830 l0 -110 38 -2 c20 -1 51 -2 67 -3 36 -1 55 4 55 16 0 5
-30 9 -66 9 l-65 0 3 38 3 37 58 3 c76 4 74 22 -3 22 l-60 0 0 35 0 35 65 0
c51 0 65 3 65 15 0 12 -16 15 -80 15 l-80 0 0 -110z"/>
<path d="M3120 825 c0 -89 3 -116 13 -113 8 3 14 34 17 88 l5 84 52 -82 c72
-114 83 -110 83 28 0 61 -4 110 -9 110 -15 0 -18 -22 -15 -97 2 -40 0 -73 -4
-73 -4 1 -30 38 -57 83 -28 45 -58 83 -68 85 -15 3 -17 -8 -17 -113z"/>
<path d="M3711 922 c-19 -36 -78 -201 -74 -206 11 -11 32 8 38 35 6 27 10 29
55 29 46 0 49 -2 55 -30 4 -16 13 -30 21 -30 20 0 19 6 -22 119 -36 100 -53
120 -73 83z m33 -56 c3 -13 9 -31 12 -40 5 -13 -1 -16 -25 -16 -35 0 -36 1
-19 47 14 39 24 42 32 9z"/>
<path d="M3960 830 c0 -91 3 -110 15 -110 12 0 15 19 15 110 0 91 -3 110 -15
110 -12 0 -15 -19 -15 -110z"/>
<path d="M4342 830 c2 -80 7 -115 16 -118 8 -2 12 11 12 47 l0 51 48 0 c56 0
85 22 85 66 0 42 -25 58 -98 62 l-66 4 3 -112z m126 51 c5 -31 -21 -51 -65
-51 -32 0 -33 1 -33 41 l0 40 48 -3 c41 -3 47 -6 50 -27z"/>
<path d="M4685 868 c-15 -40 -34 -88 -41 -107 -8 -18 -11 -37 -8 -43 8 -13 31
8 38 37 6 22 12 25 52 25 41 0 46 -3 55 -30 6 -16 17 -30 25 -30 18 0 19 -1
-24 115 -48 127 -60 131 -97 33z m58 -13 l16 -45 -34 0 -34 0 17 45 c9 25 17
45 18 45 1 0 9 -20 17 -45z"/>
<path d="M4960 825 c0 -98 2 -114 15 -109 10 4 15 20 15 51 l0 44 53 -3 52 -3
5 -40 c3 -25 11 -41 20 -43 13 -2 15 6 12 40 -2 24 -8 48 -13 54 -5 6 -4 15 2
21 6 6 9 26 7 44 -4 43 -34 59 -110 59 l-58 0 0 -115z m135 50 c0 -29 -2 -30
-52 -33 l-53 -3 0 36 0 36 53 -3 c50 -3 52 -4 52 -33z"/>
<path d="M5260 925 c0 -11 11 -15 40 -15 l40 0 0 -95 c0 -78 3 -95 15 -95 12
0 15 17 15 95 l0 95 35 0 c24 0 35 5 35 15 0 12 -17 15 -90 15 -73 0 -90 -3
-90 -15z"/>
<path d="M5577 933 c-4 -3 -7 -53 -7 -110 0 -84 3 -103 15 -103 11 0 15 19 17
88 l3 87 54 -87 c36 -60 60 -88 72 -88 17 0 19 9 19 110 0 90 -3 110 -15 110
-11 0 -15 -19 -17 -87 l-3 -87 -54 87 c-50 81 -67 97 -84 80z"/>
<path d="M5900 830 l0 -110 85 0 c50 0 85 4 85 10 0 6 -30 10 -71 10 l-70 0 3
38 3 37 58 3 c76 4 74 22 -3 22 l-60 0 0 35 0 35 65 0 c51 0 65 3 65 15 0 12
-16 15 -80 15 l-80 0 0 -110z"/>
<path d="M6217 933 c-4 -3 -7 -53 -7 -110 0 -85 3 -103 15 -103 11 0 15 12 15
46 l0 45 53 -3 52 -3 9 -42 c6 -24 16 -43 23 -43 14 0 8 78 -7 94 -5 5 -2 20
7 33 20 30 5 69 -33 83 -29 11 -117 13 -127 3z m138 -43 c11 -33 -12 -50 -66
-50 l-49 0 0 35 0 35 54 0 c46 0 56 -3 61 -20z"/>
<path d="M3430 800 c0 -5 18 -10 40 -10 22 0 40 5 40 10 0 6 -18 10 -40 10
-22 0 -40 -4 -40 -10z"/>
</g>
</svg>
