<?xml version="1.0" standalone="no"?>
<!DOCTYPE svg PUBLIC "-//W3C//DTD SVG 20010904//EN"
 "http://www.w3.org/TR/2001/REC-SVG-20010904/DTD/svg10.dtd">
<svg version="1.0" xmlns="http://www.w3.org/2000/svg"
 width="781.000000pt" height="195.000000pt" viewBox="0 0 781.000000 195.000000"
 preserveAspectRatio="xMidYMid meet">

<g transform="translate(0.000000,195.000000) scale(0.100000,-0.100000)"
fill="#000000" stroke="none">
<path d="M2340 1615 c0 -24 3 -25 55 -25 l55 0 0 -440 0 -440 21 0 c13 0 38
18 61 45 l40 45 38 -34 c48 -43 99 -60 161 -53 140 17 219 119 227 293 6 123
-14 193 -72 250 -86 87 -229 84 -313 -6 l-28 -30 3 210 3 210 -126 0 -125 0 0
-25z m472 -385 c31 -38 40 -99 36 -230 -3 -102 -8 -132 -25 -166 -43 -81 -147
-86 -197 -9 -55 84 -49 289 10 374 44 62 138 78 176 31z"/>
<path d="M4940 1615 c0 -24 3 -25 55 -25 l55 0 0 -174 0 -174 -31 29 c-88 82
-265 53 -336 -56 -85 -129 -63 -381 38 -457 99 -74 243 -57 310 35 l29 40 0
-51 0 -52 116 0 c114 0 115 0 112 23 -3 19 -10 22 -50 25 l-48 3 0 430 0 429
-125 0 -125 0 0 -25z m30 -378 c61 -41 75 -78 75 -202 0 -100 -2 -115 -28
-167 -63 -129 -191 -130 -226 -2 -16 58 -14 231 4 291 28 94 104 129 175 80z"/>
<path d="M440 1545 c0 -22 4 -24 56 -27 l56 -3 148 -395 148 -395 32 0 31 0
96 257 c53 142 99 256 102 254 3 -3 49 -119 101 -260 l95 -256 31 0 32 0 73
208 c40 114 103 293 140 397 l67 190 51 3 c47 3 51 5 51 28 l0 24 -135 0 -135
0 0 -25 c0 -23 3 -25 50 -25 28 0 50 -3 50 -7 0 -20 -196 -561 -201 -555 -6 7
-209 548 -209 558 0 2 23 4 50 4 47 0 50 2 50 25 l0 25 -185 0 -185 0 0 -25
c0 -24 3 -25 54 -25 l53 0 34 -92 35 -93 -75 -198 -74 -199 -108 289 -107 288
49 3 c44 3 49 5 49 28 l0 24 -185 0 -185 0 0 -25z"/>
<path d="M3100 1546 c0 -25 2 -26 60 -26 l60 0 0 -370 0 -370 -60 0 c-57 0
-60 -1 -60 -25 l0 -25 195 0 195 0 0 25 c0 24 -3 25 -60 25 l-60 0 0 170 0
170 63 0 c112 0 143 -35 157 -180 17 -162 63 -220 173 -220 48 0 98 27 123 66
17 25 17 27 -1 41 -18 12 -22 11 -38 -12 -43 -58 -81 -19 -92 95 -11 122 -43
176 -124 213 l-45 20 60 27 c67 31 96 59 119 112 43 104 -10 215 -123 259 -52
20 -79 23 -299 27 l-243 4 0 -26z m444 -46 c76 -29 99 -218 35 -286 -27 -28
-92 -46 -154 -42 l-50 3 -3 168 -2 167 74 0 c41 0 86 -4 100 -10z"/>
<path d="M6867 1483 c-2 -5 -7 -21 -11 -38 -4 -16 -19 -56 -33 -87 l-26 -58
-48 0 c-46 0 -49 -2 -49 -25 0 -23 4 -25 44 -25 l44 0 4 -212 c4 -236 10 -261
71 -299 25 -16 45 -19 97 -17 76 4 115 26 146 83 16 31 17 37 4 45 -24 16 -34
12 -52 -20 -29 -51 -87 -59 -110 -16 -8 14 -13 94 -15 229 l-4 207 81 0 c78 0
80 1 80 25 0 23 -3 24 -77 27 l-78 3 -2 70 c-1 39 -2 80 -2 93 -1 18 -7 22
-30 22 -17 0 -32 -3 -34 -7z"/>
<path d="M1995 1313 c-131 -28 -194 -111 -203 -266 -7 -124 16 -206 74 -262
90 -88 252 -99 355 -23 22 17 79 103 79 121 0 2 -11 7 -25 10 -22 4 -29 -2
-45 -33 -41 -80 -123 -115 -205 -88 -54 18 -83 75 -87 173 l-3 70 183 3 182 2
0 58 c0 80 -16 127 -57 173 -50 56 -156 82 -248 62z m124 -57 c24 -19 41 -73
41 -131 l0 -55 -110 0 -110 0 0 38 c0 82 41 155 93 165 28 5 68 -3 86 -17z"/>
<path d="M4148 1306 c-71 -19 -120 -56 -153 -117 -29 -52 -30 -59 -30 -174 0
-104 3 -125 21 -160 56 -103 125 -140 259 -139 97 0 142 16 197 67 81 75 108
273 54 398 -46 109 -201 165 -348 125z m159 -48 c13 -6 33 -32 45 -57 20 -40
23 -62 23 -176 0 -174 -20 -231 -91 -261 -41 -17 -102 -3 -131 31 -34 39 -47
99 -47 215 1 114 21 205 51 232 41 35 98 41 150 16z"/>
<path d="M5532 1305 c-101 -31 -154 -100 -171 -221 -12 -83 0 -188 28 -243 60
-116 234 -166 358 -102 45 22 100 83 110 119 6 26 6 27 -24 36 -17 5 -23 2
-28 -16 -32 -103 -188 -155 -254 -84 -27 28 -51 113 -51 179 l0 47 186 0 187
0 -6 71 c-12 154 -93 230 -242 228 -27 0 -69 -6 -93 -14z m136 -40 c31 -9 54
-58 60 -132 l5 -63 -117 0 c-133 0 -127 -6 -101 95 26 100 65 125 153 100z"/>
<path d="M6330 1309 c-50 -16 -89 -46 -121 -97 l-29 -46 0 67 0 67 -120 0
-120 0 0 -25 c0 -24 3 -25 55 -25 l55 0 0 -234 0 -235 -47 -3 c-41 -3 -48 -6
-51 -25 l-3 -23 160 0 161 0 0 25 c0 23 -4 25 -41 25 l-42 0 6 138 c3 94 10
153 22 187 38 108 99 161 170 147 47 -9 55 -47 55 -271 l0 -200 -42 -3 c-36
-2 -44 -7 -46 -25 l-3 -23 160 0 161 0 0 25 c0 23 -4 25 -44 25 l-45 0 -3 213
c-3 234 -8 254 -68 297 -36 26 -126 35 -180 19z"/>
<path d="M1116 498 c4 -7 16 -25 26 -40 10 -15 18 -44 18 -67 0 -23 5 -41 10
-41 6 0 10 19 10 43 0 29 8 54 25 80 14 20 21 37 16 37 -5 0 -18 -13 -28 -30
-9 -16 -20 -30 -23 -30 -3 0 -14 14 -23 30 -10 17 -23 30 -28 30 -6 0 -7 -6
-3 -12z"/>
<path d="M1369 497 c-43 -33 -49 -83 -14 -121 49 -53 145 -20 145 50 0 65 -81
109 -131 71z m99 -22 c23 -21 18 -76 -9 -97 -40 -34 -108 -5 -109 45 -1 62 73
95 118 52z"/>
<path d="M1622 444 c-2 -79 6 -94 53 -94 48 0 65 26 65 98 0 35 -4 62 -10 62
-6 0 -10 -30 -10 -69 0 -54 -4 -70 -16 -75 -49 -19 -68 2 -75 81 l-6 68 -1
-71z"/>
<path d="M1860 430 c0 -47 4 -80 10 -80 6 0 10 16 10 35 0 44 14 44 42 0 30
-46 46 -45 19 1 -26 43 -25 40 -1 47 13 3 20 14 20 29 0 34 -18 48 -62 48
l-38 0 0 -80z m83 46 c7 -19 -12 -36 -40 -36 -18 0 -23 6 -23 25 0 21 5 25 29
25 16 0 31 -6 34 -14z"/>
<path d="M2245 485 c-54 -53 -13 -135 66 -135 29 0 42 6 58 26 31 39 27 54
-14 54 -19 0 -35 -4 -35 -10 0 -5 11 -10 25 -10 30 0 32 -11 5 -35 -29 -26
-91 -11 -104 26 -23 65 33 116 93 86 33 -17 44 -5 12 13 -34 18 -80 12 -106
-15z"/>
<path d="M2509 470 c-1 -22 -2 -57 -3 -77 l-1 -38 50 -1 c45 -1 46 -1 8 3 -41
4 -43 6 -43 38 0 29 4 34 28 38 l27 4 -27 2 c-23 1 -28 6 -28 26 0 22 4 25 34
25 19 0 38 5 41 10 4 6 -12 10 -39 10 l-46 0 -1 -40z"/>
<path d="M2710 432 c0 -48 4 -82 10 -82 6 0 10 27 10 62 l0 62 38 -44 c20 -24
45 -53 54 -64 17 -20 17 -18 18 62 0 45 -3 82 -7 82 -5 0 -7 -28 -5 -62 l2
-63 -60 65 -60 65 0 -83z"/>
<path d="M2960 430 l0 -80 53 2 c50 1 50 2 10 5 -41 4 -43 5 -43 38 0 29 4 34
28 38 l27 4 -27 2 c-23 1 -28 6 -28 26 0 22 4 25 34 25 19 0 38 5 41 10 4 6
-13 10 -44 10 l-51 0 0 -80z"/>
<path d="M3170 430 c0 -47 4 -80 10 -80 6 0 10 16 10 35 0 22 5 35 13 35 7 0
21 -16 31 -35 11 -19 23 -35 28 -35 13 0 9 13 -12 40 -25 32 -25 36 0 43 13 3
20 14 20 31 0 29 -25 46 -69 46 l-31 0 0 -80z m84 51 c12 -19 -7 -41 -35 -41
-24 0 -29 4 -29 25 0 21 5 25 29 25 17 0 32 -4 35 -9z"/>
<path d="M3440 483 c-43 -94 -59 -133 -51 -133 4 0 13 11 19 25 10 20 19 25
51 25 33 0 40 -4 45 -25 4 -14 11 -25 16 -25 6 0 10 2 10 4 0 6 -71 156 -74
156 -1 0 -9 -12 -16 -27z m40 -55 c0 -4 -11 -8 -25 -8 -23 0 -24 2 -13 26 11
24 13 25 25 8 7 -10 13 -21 13 -26z"/>
<path d="M3610 500 c0 -5 9 -10 20 -10 17 0 20 -8 23 -72 l3 -73 2 73 c2 65 4
72 22 72 11 0 20 5 20 10 0 6 -20 10 -45 10 -25 0 -45 -4 -45 -10z"/>
<path d="M3800 430 c0 -47 4 -80 10 -80 6 0 10 33 10 80 0 47 -4 80 -10 80 -6
0 -10 -33 -10 -80z"/>
<path d="M3930 507 c0 -2 15 -39 34 -82 l35 -79 35 78 c40 87 40 86 28 86 -5
0 -21 -28 -36 -62 l-27 -63 -26 63 c-15 34 -30 62 -35 62 -4 0 -8 -1 -8 -3z"/>
<path d="M4180 430 l0 -80 48 2 c43 1 44 2 10 5 -36 4 -38 6 -38 38 0 27 4 34
23 38 l22 4 -22 2 c-17 1 -23 7 -23 26 0 22 4 25 34 25 19 0 38 5 41 10 4 6
-13 10 -44 10 l-51 0 0 -80z"/>
<path d="M4570 483 c-43 -94 -59 -133 -51 -133 4 0 13 11 19 25 9 20 19 25 47
25 28 0 38 -5 47 -25 9 -21 28 -35 28 -21 0 6 -72 156 -75 156 -1 0 -8 -12
-15 -27z m40 -55 c0 -4 -11 -8 -25 -8 -23 0 -24 2 -13 26 11 24 13 25 25 8 7
-10 13 -21 13 -26z"/>
<path d="M4770 430 c0 -47 4 -80 10 -80 6 0 10 33 10 80 0 47 -4 80 -10 80 -6
0 -10 -33 -10 -80z"/>
<path d="M5050 430 c0 -47 4 -80 10 -80 6 0 10 16 10 35 0 24 5 35 15 36 41 4
65 19 65 43 0 32 -19 46 -62 46 l-38 0 0 -80z m74 50 c15 -15 -3 -40 -29 -40
-21 0 -25 5 -25 31 0 27 3 30 23 24 12 -4 26 -11 31 -15z"/>
<path d="M5277 435 c-40 -81 -41 -85 -29 -85 5 0 14 11 20 25 9 20 19 25 47
25 28 0 38 -5 47 -25 6 -14 15 -25 20 -25 9 0 -6 39 -43 113 l-24 47 -38 -75z
m41 -13 c-27 -5 -32 2 -18 29 l13 22 13 -24 c11 -22 11 -24 -8 -27z"/>
<path d="M5500 430 c0 -47 4 -80 10 -80 6 0 10 16 10 35 0 44 14 44 42 0 30
-46 46 -45 19 1 -26 43 -25 40 -1 47 13 3 20 14 20 31 0 29 -25 46 -69 46
l-31 0 0 -80z m83 48 c8 -24 -5 -38 -34 -38 -24 0 -29 4 -29 25 0 21 5 25 29
25 16 0 31 -6 34 -12z"/>
<path d="M5700 500 c0 -5 7 -10 15 -10 12 0 15 -14 15 -70 0 -40 4 -70 10 -70
6 0 10 30 10 70 0 54 3 70 14 70 8 0 18 5 21 10 4 6 -12 10 -39 10 -25 0 -46
-4 -46 -10z"/>
<path d="M5890 432 c0 -48 4 -82 10 -82 6 0 10 27 10 60 l0 61 46 -53 c26 -29
50 -57 55 -62 5 -6 9 25 9 72 0 45 -4 82 -9 82 -4 0 -7 -28 -5 -62 l2 -63 -59
65 -59 65 0 -83z"/>
<path d="M6140 430 l0 -80 53 2 c50 1 50 2 10 5 -41 4 -43 5 -43 38 0 29 4 34
28 38 l27 4 -27 2 c-23 1 -28 6 -28 26 0 22 4 25 34 25 19 0 38 5 41 10 4 6
-13 10 -44 10 l-51 0 0 -80z"/>
<path d="M6350 430 c0 -47 4 -80 10 -80 6 0 10 16 10 35 0 22 5 35 13 35 7 0
21 -16 31 -35 11 -19 23 -35 28 -35 13 0 9 13 -12 40 -25 32 -25 36 0 43 13 3
20 14 20 31 0 29 -25 46 -69 46 l-31 0 0 -80z m84 51 c12 -19 -7 -41 -35 -41
-24 0 -29 4 -29 25 0 21 5 25 29 25 17 0 32 -4 35 -9z"/>
</g>
</svg>
